<svg width="26.403564" height="25.199951" viewBox="0 0 26.4036 25.2" fill="none" xmlns="http://www.w3.org/2000/svg" xmlns:xlink="http://www.w3.org/1999/xlink">
	<desc>
			Created with Pixso.
	</desc>
	<defs/>
	<path id="Vector" d="M4.2 0L4.2 9.6L0 9.6L0.09 25.2L8.43 25.2L9.63 25.2L18 25.2L26.4 25.2L26.4 2.39L16.8 2.39L16.8 3L16.8 14.39L13.8 14.39L13.8 0L4.2 0ZM5.4 1.19L12.6 1.2L12.6 14.39L9.61 14.39L9.6 9.6L9 9.6L5.4 9.6L5.4 1.19ZM7.2 2.39L7.2 3.6L8.4 3.6L8.4 2.39L7.2 2.39ZM9.62 2.39L9.62 3.6L10.8 3.6L10.8 2.39L9.62 2.39ZM18 3.6L25.2 3.6L25.2 24L22.18 24L22.18 21.6L21 21.6L21 24L18 24L18 14.39L18 3.6ZM7.2 4.8L7.2 6L8.4 6L8.4 4.8L7.2 4.8ZM9.6 4.8L9.6 6L10.8 6L10.8 4.8L9.6 4.8ZM19.8 4.8L19.8 6L21 6L21 4.8L19.8 4.8ZM22.21 4.8L22.21 6.01L23.39 6.01L23.39 4.8L22.21 4.8ZM19.8 7.2L19.8 8.39L21 8.39L21 7.2L19.8 7.2ZM22.21 7.2L22.21 8.39L23.39 8.39L23.39 7.2L22.21 7.2ZM19.8 9.6L19.8 10.8L21 10.8L21 9.6L19.8 9.6ZM22.2 9.6L22.2 10.8L23.39 10.8L23.39 9.6L22.2 9.6ZM1.2 10.8L8.4 10.8L8.41 14.39L8.4 14.39L8.42 24L5.39 24L5.39 21.6L4.21 21.6L4.21 24L1.28 24L1.2 10.8ZM3 12L3 13.2L4.22 13.2L4.22 12L3 12ZM5.42 12L5.42 13.2L6.6 13.2L6.6 12L5.42 12ZM19.8 12L19.8 13.19L21 13.19L21 12L19.8 12ZM22.2 12L22.2 13.19L23.39 13.19L23.39 12L22.2 12ZM3 14.39L3 15.6L4.22 15.6L4.22 14.39L3 14.39ZM5.42 14.39L5.42 15.6L6.6 15.6L6.6 14.39L5.42 14.39ZM19.8 14.39L19.8 15.6L21 15.6L21 14.39L19.8 14.39ZM22.21 14.39L22.21 15.6L23.39 15.6L23.39 14.39L22.21 14.39ZM9.61 15.6L16.8 15.6L16.8 24L13.8 24L13.8 21.6L12.6 21.6L12.6 24L9.62 24L9.61 15.6ZM3 16.79L3 18L4.22 18L4.22 16.79L3 16.79ZM5.42 16.79L5.42 18L6.6 18L6.6 16.79L5.42 16.79ZM11.4 16.79L11.4 18L12.6 18L12.6 16.79L11.4 16.79ZM13.8 16.79L13.8 18L15 18L15 16.79L13.8 16.79ZM19.8 16.79L19.8 18L21 18L21 16.79L19.8 16.79ZM22.21 16.79L22.21 18L23.39 18L23.39 16.79L22.21 16.79ZM11.4 19.19L11.4 20.39L12.6 20.39L12.6 19.19L11.4 19.19ZM13.8 19.19L13.8 20.39L15 20.39L15 19.19L13.8 19.19ZM19.8 19.19L19.8 20.39L21 20.39L21 19.19L19.8 19.19ZM22.21 19.19L22.21 20.39L23.39 20.39L23.39 19.19L22.21 19.19Z" fill="#343434" fill-opacity="1.000000" fill-rule="nonzero"/>
</svg>
