<svg width="15.000000" height="18.152100" viewBox="0 0 15 18.1521" fill="none" xmlns="http://www.w3.org/2000/svg" xmlns:xlink="http://www.w3.org/1999/xlink">
	<desc>
			Created with Pixso.
	</desc>
	<defs/>
	<path id="Vector (Граница)" d="M7.5 8.91C9.96 8.91 11.95 6.91 11.95 4.45C11.95 1.99 9.96 0 7.5 0C5.03 0 3.04 1.99 3.04 4.45C3.04 6.91 5.03 8.91 7.5 8.91ZM7.5 7.91C7.76 7.91 8.02 7.88 8.28 7.82C8.47 7.78 8.66 7.71 8.84 7.64C9.03 7.56 9.21 7.46 9.38 7.35C9.58 7.22 9.77 7.07 9.94 6.9C10.11 6.72 10.26 6.54 10.39 6.34C10.5 6.17 10.6 5.99 10.68 5.8C10.76 5.61 10.82 5.42 10.86 5.23C10.92 4.98 10.95 4.72 10.95 4.45C10.95 4.18 10.92 3.92 10.86 3.67C10.82 3.48 10.76 3.29 10.68 3.11C10.6 2.92 10.5 2.74 10.39 2.57C10.26 2.37 10.11 2.18 9.94 2.01C9.77 1.84 9.58 1.68 9.38 1.55C9.21 1.44 9.03 1.35 8.84 1.27C8.66 1.19 8.47 1.13 8.28 1.08C8.02 1.02 7.76 1 7.5 1C7.23 1 6.97 1.02 6.71 1.08C6.52 1.13 6.33 1.19 6.15 1.27C5.96 1.35 5.78 1.44 5.61 1.55C5.41 1.68 5.22 1.84 5.05 2.01C4.88 2.18 4.73 2.37 4.6 2.57C4.49 2.74 4.39 2.92 4.31 3.11C4.23 3.29 4.17 3.48 4.13 3.67C4.07 3.92 4.04 4.18 4.04 4.45C4.04 4.72 4.07 4.98 4.13 5.23C4.17 5.42 4.23 5.61 4.31 5.8C4.39 5.99 4.49 6.17 4.6 6.34C4.73 6.54 4.88 6.72 5.05 6.9C5.22 7.07 5.41 7.22 5.61 7.35C5.78 7.46 5.96 7.56 6.15 7.64C6.33 7.71 6.52 7.78 6.71 7.82C6.97 7.88 7.23 7.91 7.5 7.91ZM14.42 15.28C14.67 15.88 14.84 16.51 14.93 17.15C14.97 17.48 15 17.81 15 18.15L0 18.15C0 17.81 0.02 17.48 0.06 17.15C0.15 16.51 0.32 15.88 0.57 15.28C0.94 14.37 1.5 13.54 2.19 12.84C2.89 12.15 3.71 11.59 4.62 11.22C5.53 10.84 6.51 10.65 7.5 10.65C8.48 10.65 9.46 10.84 10.37 11.22C11.28 11.59 12.1 12.15 12.8 12.84C13.49 13.54 14.05 14.37 14.42 15.28ZM13.87 16.89C13.89 16.97 13.91 17.06 13.92 17.15L1.07 17.15C1.09 17.06 1.1 16.97 1.12 16.88C1.2 16.47 1.32 16.06 1.49 15.66C1.65 15.26 1.85 14.89 2.09 14.54C2.32 14.18 2.59 13.86 2.9 13.55C3.2 13.25 3.53 12.98 3.88 12.74C4.23 12.51 4.61 12.31 5.01 12.14C5.41 11.98 5.81 11.85 6.23 11.77C6.64 11.69 7.06 11.65 7.5 11.65C7.93 11.65 8.35 11.69 8.76 11.77C9.18 11.85 9.58 11.98 9.98 12.14C10.38 12.31 10.76 12.51 11.11 12.74C11.46 12.98 11.79 13.25 12.09 13.55C12.4 13.86 12.67 14.18 12.9 14.54C13.14 14.89 13.34 15.26 13.5 15.66C13.67 16.06 13.79 16.47 13.87 16.89Z" fill="#000000" fill-opacity="1.000000" fill-rule="evenodd"/>
</svg>
