<svg width="18.000000" height="18.000000" viewBox="0 0 18 18" fill="none" xmlns="http://www.w3.org/2000/svg" xmlns:xlink="http://www.w3.org/1999/xlink">
	<desc>
			Created with Pixso.
	</desc>
	<defs/>
	<path id="Vector (Граница)" d="M13.84 4.53C13.54 4.23 13.08 4.23 12.78 4.53C12.48 4.82 12.48 5.29 12.78 5.59L16.18 9L12.78 12.4C12.48 12.7 12.48 13.17 12.78 13.46C13.08 13.76 13.54 13.76 13.84 13.46L17.78 9.53C17.92 9.38 18 9.2 18 9C18 8.79 17.92 8.61 17.78 8.46L13.84 4.53Z" fill="#343434" fill-opacity="1.000000" fill-rule="evenodd"/>
	<path id="Vector (Граница)" d="M6.75 8.25L17.24 8.25C17.66 8.25 17.99 8.58 17.99 9C17.99 9.41 17.66 9.75 17.24 9.75L6.75 9.75C6.32 9.75 6 9.41 6 9C6 8.58 6.32 8.25 6.75 8.25Z" fill="#343434" fill-opacity="1.000000" fill-rule="evenodd"/>
	<path id="Vector (Граница)" d="M1.5 18L6.75 18C7.17 18 7.5 17.66 7.5 17.25C7.5 16.83 7.17 16.5 6.75 16.5L1.5 16.5L1.5 1.5L6.75 1.5C7.17 1.5 7.5 1.16 7.5 0.75C7.5 0.33 7.17 0 6.75 0L1.5 0C1.4 0 1.3 0 1.2 0.02C1.11 0.04 1.01 0.07 0.92 0.11C0.83 0.15 0.74 0.19 0.66 0.25C0.58 0.3 0.5 0.36 0.43 0.43C0.36 0.5 0.3 0.58 0.25 0.66C0.19 0.74 0.15 0.83 0.11 0.92C0.07 1.01 0.04 1.11 0.02 1.2C0 1.3 0 1.4 0 1.5L0 16.5C0 16.59 0 16.69 0.02 16.79C0.04 16.88 0.07 16.98 0.11 17.07C0.15 17.16 0.19 17.25 0.25 17.33C0.3 17.41 0.36 17.49 0.43 17.56C0.5 17.63 0.58 17.69 0.66 17.74C0.74 17.8 0.83 17.84 0.92 17.88C1.01 17.92 1.11 17.95 1.2 17.97C1.3 17.99 1.4 18 1.5 18Z" fill="#343434" fill-opacity="1.000000" fill-rule="evenodd"/>
</svg>
